{"title":"Locked Down (2010) DvdRip Xvid {1337x}-X","uid":5939974,"size":734015488,"categoryP":"video","categoryS":"movies","magnet":"?xt=urn:btih:9c031e96b81ccc3749f01674908564d825780c0e&amp;dn=Locked+Down+%282010%29+DvdRip+Xvid+%7B1337x%7D-X&amp;tr=udp%3A%2F%2Ftracker.openbittorrent.com%3A80&amp;tr=udp%3A%2F%2Fopen.demonii.com%3A1337&amp;tr=udp%3A%2F%2Ftracker.coppersurfer.tk%3A6969&amp;tr=udp%3A%2F%2Fexodus.desync.com%3A6969","seeders":0,"leechers":1,"uploader":".BONE.","files":1,"time":1289129639,"description":"Danny, a respected cop, is setup after an investigation goes wrong. While laying low in his new jail cell, Danny is forced to get involved in the inmates underground cage fighting circuit. With the help of Irving, a former mixed martial arts champion, Danny devises a scheme to bring justice and innocence to his family's name, if he can get out of the cage alive.\n &lt;a href=&quot;\nhttp://leetleech.org/images/29992297052223038754.jpg&quot; rel=&quot;nofollow&quot; target=&quot;_NEW&quot;&gt;\nhttp://leetleech.org/images/29992297052223038754.jpg&lt;/a&gt;\n\nVideo\n\nCodec ID/Hint : XviD\nDuration : 1h 38mn\nBit rate : 873 Kbps\nWidth : 624 pixels\nHeight : 336 pixels\nDisplay aspect ratio : 1.857\nFrame rate : 23.976 fps\nColor space : YUV\nChroma subsampling : 4:2:0\nBit depth : 8 bits\nScan type : Progressive\nBits/(Pixel*Frame) : 0.174\nStream size : 617 MiB (88%)\nWriting library : XviD 57\n\n\nCodec ID/Hint : MP3\nDuration : 1h 38mn\nBit rate mode : Variable\nBit rate : 104 Kbps\nNominal bit rate : 112 Kbps\nChannel(s) : 2 channels\nSampling rate : 48.0 KHz\nStream size : 73.7 MiB (11%)\nAlignment : Aligned on interleaves\nInterleave, duration : 24 ms (0.58 video frame)\nInterleave, preload duration : 176 ms\nWriting library : LAME3.97\nEncoding settings : -m j -V 4 -q 2 -lowpass 16 --abr 112\n\nTrailer\n[url][/url]\n\nIMDB &lt;a href=&quot;\nhttp://www.imdb.com/title/tt1597033/&quot; rel=&quot;nofollow&quot; target=&quot;_NEW&quot;&gt;\nhttp://www.imdb.com/title/tt1597033/&lt;/a&gt;\n\nShout out to noir and all my freinds @ 1337x.org and extratorrent\n","torrent":{"xt":"urn:btih:9c031e96b81ccc3749f01674908564d825780c0e","amp;dn":"Locked+Down+%282010%29+DvdRip+Xvid+%7B1337x%7D-X","amp;tr":["udp%3A%2F%2Ftracker.openbittorrent.com%3A80","udp%3A%2F%2Fopen.demonii.com%3A1337","udp%3A%2F%2Ftracker.coppersurfer.tk%3A6969","udp%3A%2F%2Fexodus.desync.com%3A6969"],"infoHash":"9c031e96b81ccc3749f01674908564d825780c0e","infoHashBuffer":{"type":"Buffer","data":[156,3,30,150,184,28,204,55,73,240,22,116,144,133,100,216,37,120,12,14]},"announce":[],"urlList":[]}}